<svg version="1.1" viewBox="0.0 0.0 469.03412073490813 109.06299212598425" fill="none" stroke="none" stroke-linecap="square" stroke-miterlimit="10" xmlns:xlink="http://www.w3.org/1999/xlink" xmlns="http://www.w3.org/2000/svg"><clipPath id="p.0"><path d="m0 0l469.03412 0l0 109.062996l-469.03412 0l0 -109.062996z" clip-rule="nonzero"/></clipPath><g clip-path="url(#p.0)"><path fill="#000000" fill-opacity="0.0" d="m0 0l469.03412 0l0 109.062996l-469.03412 0z" fill-rule="evenodd"/><path fill="#02500a" d="m9.918231 58.287006c4.368329 4.4059486 29.970692 11.356518 29.17323 18.459316c-0.7974663 7.1027985 -52.912075 20.131233 -33.958008 24.157478c18.95407 4.026245 114.028 -0.8285217 147.68242 0c33.65442 0.8285217 50.635162 11.131676 54.244095 4.9711304c3.6089172 -6.1605453 -25.877518 -31.773842 -32.59056 -41.934383c-6.713028 -10.160542 -18.196838 -15.651794 -7.6876526 -19.02887c10.509186 -3.377079 49.95494 -1.8013992 70.74278 -1.2335968c20.787842 0.5678024 38.471558 3.7130356 53.984253 4.640419c15.512665 0.9273834 29.783447 2.368328 39.091858 0.92388535c9.308411 -1.4444427 16.861755 -6.342083 16.758514 -9.590549c-0.10321045 -3.2484703 -2.5874634 -8.611549 -17.37793 -9.900265c-14.790466 -1.2887135 -36.10193 -1.2585297 -71.36484 2.1679802c-35.26291 3.4265099 -99.256775 15.325897 -140.2126 18.391075c-40.95582 3.065178 -87.441376 -1.3293953 -105.52231 0c-18.080929 1.3293953 -7.331584 3.5704308 -2.963255 7.9763794z" fill-rule="evenodd"/><path stroke="#1f3e0f" stroke-width="1.0" stroke-linejoin="round" stroke-linecap="butt" d="m9.918231 58.287006c4.368329 4.4059486 29.970692 11.356518 29.17323 18.459316c-0.7974663 7.1027985 -52.912075 20.131233 -33.958008 24.157478c18.95407 4.026245 114.028 -0.8285217 147.68242 0c33.65442 0.8285217 50.635162 11.131676 54.244095 4.9711304c3.6089172 -6.1605453 -25.877518 -31.773842 -32.59056 -41.934383c-6.713028 -10.160542 -18.196838 -15.651794 -7.6876526 -19.02887c10.509186 -3.377079 49.95494 -1.8013992 70.74278 -1.2335968c20.787842 0.5678024 38.471558 3.7130356 53.984253 4.640419c15.512665 0.9273834 29.783447 2.368328 39.091858 0.92388535c9.308411 -1.4444427 16.861755 -6.342083 16.758514 -9.590549c-0.10321045 -3.2484703 -2.5874634 -8.611549 -17.37793 -9.900265c-14.790466 -1.2887135 -36.10193 -1.2585297 -71.36484 2.1679802c-35.26291 3.4265099 -99.256775 15.325897 -140.2126 18.391075c-40.95582 3.065178 -87.441376 -1.3293953 -105.52231 0c-18.080929 1.3293953 -7.331584 3.5704308 -2.963255 7.9763794z" fill-rule="evenodd"/><path fill="#1f3e0f" d="m204.779 76.97402c10.346008 5.9181976 3.3823242 25.595795 2.280838 28.90026c-1.1014862 3.3044586 4.728348 -6.5065613 -8.8897705 -9.073494c-13.618103 -2.566925 -63.9545 -1.9221344 -72.81889 -6.328079c-8.864395 -4.4059525 6.394577 -17.857834 19.632553 -20.107613c13.237961 -2.2497864 49.44925 0.69072723 59.795273 6.608925z" fill-rule="evenodd"/><path stroke="#1f3e0f" stroke-width="1.0" stroke-linejoin="round" stroke-linecap="butt" d="m204.779 76.97402c10.346008 5.9181976 3.3823242 25.595795 2.280838 28.90026c-1.1014862 3.3044586 4.728348 -6.5065613 -8.8897705 -9.073494c-13.618103 -2.566925 -63.9545 -1.9221344 -72.81889 -6.328079c-8.864395 -4.4059525 6.394577 -17.857834 19.632553 -20.107613c13.237961 -2.2497864 49.44925 0.69072723 59.795273 6.608925z" fill-rule="evenodd"/><path fill="#02500a" d="m122.96446 86.31635c0.29527283 8.804024 4.5940475 0.26509094 10.937012 -0.45668793c6.3429565 -0.7217865 14.2209015 -4.217415 27.120728 -3.8740158c12.899826 0.34339142 34.251526 4.8980713 50.278214 5.9343796c16.026688 1.0363083 31.360458 0.8508301 45.881897 0.28346252c14.521423 -0.56736755 21.6391 -0.5979843 41.246704 -3.6876602c19.607635 -3.089676 55.554688 -10.828522 76.39896 -14.850395c20.844269 -4.0218735 33.033264 -5.2073517 48.666656 -9.280838c15.633423 -4.073494 39.27124 -4.2427826 45.13388 -15.160107c5.8626404 -10.917324 6.133423 -42.76378 -9.958008 -50.343834c-16.09143 -7.5800524 -57.244537 1.010499 -86.590546 4.8635173c-29.346039 3.8530183 -62.209106 13.768591 -89.485565 18.254593c-27.276474 4.486002 -53.48207 7.475502 -74.17323 8.661417c-20.691162 1.185915 -38.370956 -1.1570435 -49.973755 -1.5459309c-11.602798 -0.3888893 -15.25679 -2.1076126 -19.643051 -0.7874031c-4.386261 1.3202114 -4.034561 -1.622921 -6.67453 8.708662c-2.6399841 10.331585 -9.46064 44.476814 -9.1653595 53.280838z" fill-rule="evenodd"/><path stroke="#1f3e0f" stroke-width="1.0" stroke-linejoin="round" stroke-linecap="butt" d="m122.96446 86.31635c0.29527283 8.804024 4.5940475 0.26509094 10.937012 -0.45668793c6.3429565 -0.7217865 14.2209015 -4.217415 27.120728 -3.8740158c12.899826 0.34339142 34.251526 4.8980713 50.278214 5.9343796c16.026688 1.0363083 31.360458 0.8508301 45.881897 0.28346252c14.521423 -0.56736755 21.6391 -0.5979843 41.246704 -3.6876602c19.607635 -3.089676 55.554688 -10.828522 76.39896 -14.850395c20.844269 -4.0218735 33.033264 -5.2073517 48.666656 -9.280838c15.633423 -4.073494 39.27124 -4.2427826 45.13388 -15.160107c5.8626404 -10.917324 6.133423 -42.76378 -9.958008 -50.343834c-16.09143 -7.5800524 -57.244537 1.010499 -86.590546 4.8635173c-29.346039 3.8530183 -62.209106 13.768591 -89.485565 18.254593c-27.276474 4.486002 -53.48207 7.475502 -74.17323 8.661417c-20.691162 1.185915 -38.370956 -1.1570435 -49.973755 -1.5459309c-11.602798 -0.3888893 -15.25679 -2.1076126 -19.643051 -0.7874031c-4.386261 1.3202114 -4.034561 -1.622921 -6.67453 8.708662c-2.6399841 10.331585 -9.46064 44.476814 -9.1653595 53.280838z" fill-rule="evenodd"/></g></svg>